<svg width="21" height="29" viewBox="0 0 21 29" fill="none" xmlns="http://www.w3.org/2000/svg">
<path d="M10.5 28.5272C7.575 28.5272 5.09375 27.5084 3.05625 25.4709C1.01875 23.4334 0 20.9522 0 18.0272C0 15.6772 0.69375 13.5709 2.08125 11.7084C3.46875 9.84591 5.2875 8.58965 7.5375 7.93966C7.0375 7.81466 6.55 7.63341 6.075 7.39591C5.6 7.1584 5.175 6.85216 4.8 6.47716C3.975 5.65216 3.44375 4.67091 3.20625 3.53341C2.96875 2.39591 2.9125 1.23966 3.0375 0.0646552C4.2125 -0.0603448 5.36875 -0.00409482 6.50625 0.233405C7.64375 0.470905 8.625 1.00216 9.45 1.82716C10.025 2.40216 10.4438 3.05216 10.7063 3.77716C10.9688 4.50216 11.1375 5.26466 11.2125 6.06466C11.5375 5.28966 11.9313 4.5584 12.3938 3.87091C12.8562 3.18341 13.375 2.55216 13.95 1.97716C14.225 1.70216 14.575 1.56466 15 1.56466C15.425 1.56466 15.775 1.70216 16.05 1.97716C16.325 2.25216 16.4625 2.60216 16.4625 3.02716C16.4625 3.45216 16.325 3.80216 16.05 4.07716C15.5 4.62716 15.0125 5.23341 14.5875 5.89591C14.1625 6.5584 13.85 7.26466 13.65 8.01466C15.85 8.71465 17.625 9.98341 18.975 11.8209C20.325 13.6584 21 15.7272 21 18.0272C21 20.9522 19.9813 23.4334 17.9438 25.4709C15.9062 27.5084 13.425 28.5272 10.5 28.5272ZM10.5 25.5272C12.575 25.5272 14.3438 24.7959 15.8062 23.3334C17.2687 21.8709 18 20.1022 18 18.0272C18 15.9522 17.2687 14.1834 15.8062 12.7209C14.3438 11.2584 12.575 10.5272 10.5 10.5272C8.425 10.5272 6.65625 11.2584 5.19375 12.7209C3.73125 14.1834 3 15.9522 3 18.0272C3 20.1022 3.73125 21.8709 5.19375 23.3334C6.65625 24.7959 8.425 25.5272 10.5 25.5272Z" fill="#775A19"/>
</svg>
