<svg width="25" height="20" viewBox="0 0 25 20" fill="none" xmlns="http://www.w3.org/2000/svg">
<path d="M8.125 20C7.4375 20 6.84896 19.7552 6.35938 19.2656C5.86979 18.776 5.625 18.1875 5.625 17.5V13.75H9.375V10.9375C8.64583 10.8958 7.95312 10.7344 7.29688 10.4531C6.64062 10.1719 6.04167 9.75 5.5 9.1875V7.8125H4.0625L0 3.75C0.75 2.79167 1.67708 2.11458 2.78125 1.71875C3.88542 1.32292 5 1.125 6.125 1.125C6.6875 1.125 7.23438 1.16667 7.76562 1.25C8.29688 1.33333 8.83333 1.48958 9.375 1.71875V0H24.375V16.25C24.375 17.2917 24.0104 18.1771 23.2812 18.9062C22.5521 19.6354 21.6667 20 20.625 20H8.125ZM11.875 13.75H19.375V16.25C19.375 16.6042 19.4948 16.901 19.7344 17.1406C19.974 17.3802 20.2708 17.5 20.625 17.5C20.9792 17.5 21.276 17.3802 21.5156 17.1406C21.7552 16.901 21.875 16.6042 21.875 16.25V2.5H11.875V3.25L19.375 10.75V12.5H17.625L14.0625 8.9375L13.8125 9.1875C13.5208 9.47917 13.2135 9.73958 12.8906 9.96875C12.5677 10.1979 12.2292 10.375 11.875 10.5V13.75ZM5.125 5.3125H8V8C8.25 8.16667 8.51042 8.28125 8.78125 8.34375C9.05208 8.40625 9.33333 8.4375 9.625 8.4375C10.1042 8.4375 10.5365 8.36458 10.9219 8.21875C11.3073 8.07292 11.6875 7.8125 12.0625 7.4375L12.3125 7.1875L10.5625 5.4375C9.95833 4.83333 9.28125 4.38021 8.53125 4.07812C7.78125 3.77604 6.97917 3.625 6.125 3.625C5.70833 3.625 5.3125 3.65625 4.9375 3.71875C4.5625 3.78125 4.1875 3.875 3.8125 4L5.125 5.3125ZM16.875 16.25H8.125V17.5H17.0625C17 17.3125 16.9531 17.1146 16.9219 16.9062C16.8906 16.6979 16.875 16.4792 16.875 16.25ZM8.125 17.5C8.125 17.3125 8.125 17.1146 8.125 16.9062C8.125 16.6979 8.125 16.4792 8.125 16.25C8.125 16.4583 8.125 16.6667 8.125 16.875C8.125 17.0833 8.125 17.2917 8.125 17.5Z" fill="#775A19"/>
</svg>
