<svg width="33" height="24" viewBox="0 0 33 24" fill="none" xmlns="http://www.w3.org/2000/svg">
<path d="M12 24C11.525 24 11.1 23.8625 10.725 23.5875C10.35 23.3125 10.075 22.9625 9.9 22.5375L6.45 13.5H0V10.5H8.55L12 19.65L18.9 1.4625C19.075 1.0375 19.35 0.6875 19.725 0.4125C20.1 0.1375 20.525 0 21 0C21.475 0 21.9 0.1375 22.275 0.4125C22.65 0.6875 22.925 1.0375 23.1 1.4625L26.55 10.5H33V13.5H24.45L21 4.35L14.1 22.5375C13.925 22.9625 13.65 23.3125 13.275 23.5875C12.9 23.8625 12.475 24 12 24Z" fill="#775A19"/>
</svg>
