<svg width="21" height="27" viewBox="0 0 21 27" fill="none" xmlns="http://www.w3.org/2000/svg">
<path d="M8.25 21.75H12.75V18H16.5V13.5H12.75V9.75H8.25V13.5H4.5V18H8.25V21.75ZM3 27C2.175 27 1.46875 26.7062 0.88125 26.1187C0.29375 25.5312 0 24.825 0 24V7.5C0 6.675 0.29375 5.96875 0.88125 5.38125C1.46875 4.79375 2.175 4.5 3 4.5H18C18.825 4.5 19.5312 4.79375 20.1187 5.38125C20.7062 5.96875 21 6.675 21 7.5V24C21 24.825 20.7062 25.5312 20.1187 26.1187C19.5312 26.7062 18.825 27 18 27H3ZM3 24H18V7.5H3V24ZM1.5 3V0H19.5V3H1.5ZM3 7.5V24V7.5Z" fill="#775A19"/>
</svg>
